{
  "accessors": [
    {
      "bufferView": 2,
      "componentType": 5126,
      "count": 23732,
      "max": [
        1.3664692640304565,
        2.8426129817962646,
        1.7568051815032959
      ],
      "min": [
        -1.3664692640304565,
        0.0017779839690774679,
        -1.4463235139846802
      ],
      "type": "VEC3"
    },
    {
      "bufferView": 2,
      "byteOffset": 284784,
      "componentType": 5126,
      "count": 23732,
      "max": [
        1,
        0.99999129772186279,
        1
      ],
      "min": [
        -1,
        -1,
        -1
      ],
      "type": "VEC3"
    },
    {
      "bufferView": 3,
      "componentType": 5126,
      "count": 23732,
      "max": [
        1,
        1,
        0.99999898672103882,
        1
      ],
      "min": [
        -1,
        -1,
        -1,
        -1
      ],
      "type": "VEC4"
    },
    {
      "bufferView": 1,
      "componentType": 5126,
      "count": 23732,
      "max": [
        0.87500011920928955,
        1.0000001192092896
      ],
      "min": [
        0.125,
        -2.4738255888223648e-10
      ],
      "type": "VEC2"
    },
    {
      "bufferView": 0,
      "componentType": 5125,
      "count": 90624,
      "max": [
        23731
      ],
      "min": [
        0
      ],
      "type": "SCALAR"
    },
    {
      "bufferView": 2,
      "byteOffset": 569568,
      "componentType": 5126,
      "count": 2591,
      "max": [
        0.47526109218597412,
        1.9738754034042358,
        1.7316379547119141
      ],
      "min": [
        -0.47526100277900696,
        1.4326072931289673,
        1.3426762819290161
      ],
      "type": "VEC3"
    },
    {
      "bufferView": 2,
      "byteOffset": 600660,
      "componentType": 5126,
      "count": 2591,
      "max": [
        0.99989569187164307,
        0.99954831600189209,
        0.99994885921478271
      ],
      "min": [
        -0.99989569187164307,
        -0.99507445096969604,
        -0.99964618682861328
      ],
      "type": "VEC3"
    },
    {
      "bufferView": 3,
      "byteOffset": 379712,
      "componentType": 5126,
      "count": 2591,
      "max": [
        1,
        0.99993467330932617,
        0.99999898672103882,
        1
      ],
      "min": [
        -0.99947857856750488,
        -0.99829584360122681,
        -0.99980121850967407,
        -1
      ],
      "type": "VEC4"
    },
    {
      "bufferView": 1,
      "byteOffset": 189856,
      "componentType": 5126,
      "count": 2591,
      "max": [
        0.97222232818603516,
        1.0000001192092896
      ],
      "min": [
        0.027777783572673798,
        0
      ],
      "type": "VEC2"
    },
    {
      "bufferView": 0,
      "byteOffset": 362496,
      "componentType": 5125,
      "count": 10752,
      "max": [
        2590
      ],
      "min": [
        0
      ],
      "type": "SCALAR"
    }
  ],
  "asset": {
    "extras": {
      "author": "mistour (https://sketchfab.com/mistour)",
      "license": "CC-BY-4.0 (http://creativecommons.org/licenses/by/4.0/)",
      "source": "https://sketchfab.com/3d-models/piggy-bank-d4387ba82d8f4dda85826ee5815640b9",
      "title": "Piggy Bank"
    },
    "generator": "Sketchfab-6.66.0",
    "version": "2.0"
  },
  "bufferViews": [
    {
      "buffer": 0,
      "byteLength": 405504,
      "byteOffset": 0,
      "name": "floatBufferViews",
      "target": 34963
    },
    {
      "buffer": 0,
      "byteLength": 210584,
      "byteOffset": 405504,
      "byteStride": 8,
      "name": "floatBufferViews",
      "target": 34962
    },
    {
      "buffer": 0,
      "byteLength": 631752,
      "byteOffset": 616088,
      "byteStride": 12,
      "name": "floatBufferViews",
      "target": 34962
    },
    {
      "buffer": 0,
      "byteLength": 421168,
      "byteOffset": 1247840,
      "byteStride": 16,
      "name": "floatBufferViews",
      "target": 34962
    }
  ],
  "buffers": [
    {
      "byteLength": 1669008,
      "uri": "scene.bin"
    }
  ],
  "materials": [
    {
      "doubleSided": true,
      "emissiveFactor": [
        0,
        0,
        0
      ],
      "name": "Material",
      "pbrMetallicRoughness": {
        "baseColorFactor": [
          0.80181250572204588,
          0.16835534582838452,
          0.67337956748890238,
          1
        ],
        "metallicFactor": 0.42681250572204588,
        "roughnessFactor": 0.55000000000000004
      }
    },
    {
      "doubleSided": true,
      "emissiveFactor": [
        0,
        0,
        0
      ],
      "name": "Material.001",
      "pbrMetallicRoughness": {
        "baseColorFactor": [
          0.046324299228386399,
          0.046324299228386399,
          0.046324299228386399,
          1
        ],
        "metallicFactor": 1,
        "roughnessFactor": 0.27056250572204588
      }
    }
  ],
  "meshes": [
    {
      "primitives": [
        {
          "attributes": {
            "NORMAL": 1,
            "POSITION": 0,
            "TANGENT": 2,
            "TEXCOORD_0": 3
          },
          "indices": 4,
          "material": 0,
          "mode": 4
        }
      ]
    },
    {
      "primitives": [
        {
          "attributes": {
            "NORMAL": 6,
            "POSITION": 5,
            "TANGENT": 7,
            "TEXCOORD_0": 8
          },
          "indices": 9,
          "material": 1,
          "mode": 4
        }
      ]
    }
  ],
  "nodes": [
    {
      "children": [
        1
      ],
      "name": "RootNode (gltf orientation matrix)",
      "rotation": [
        -0.70710678118654746,
        -0,
        -0,
        0.70710678118654757
      ]
    },
    {
      "children": [
        2
      ],
      "name": "RootNode (model correction matrix)"
    },
    {
      "children": [
        3
      ],
      "name": "root"
    },
    {
      "children": [
        4
      ],
      "matrix": [
        1,
        0,
        0,
        0,
        0,
        2.2204460492503131e-16,
        1,
        0,
        0,
        -1,
        2.2204460492503131e-16,
        0,
        0,
        0,
        0,
        1
      ],
      "name": "GLTF_SceneRootNode"
    },
    {
      "children": [
        5,
        6
      ],
      "matrix": [
        1,
        0,
        0,
        0,
        0,
        1,
        0,
        0,
        0,
        0,
        1,
        0,
        0,
        0,
        0.00059636123478412628,
        1
      ],
      "name": "Cube_0"
    },
    {
      "mesh": 0,
      "name": ""
    },
    {
      "mesh": 1,
      "name": ""
    }
  ],
  "scene": 0,
  "scenes": [
    {
      "name": "OSG_Scene",
      "nodes": [
        0
      ]
    }
  ]
}

